<svg xmlns="http://www.w3.org/2000/svg" width="302.551" height="296.651" viewBox="0 0 302.551 296.651">
  <defs>
    <style>
      .cls-1 {
        fill: #e90075;
      }
    </style>
  </defs>
  <g id="circle" transform="translate(2.95 -2.95)">
    <path id="Path_15588" data-name="Path 15588" class="cls-1" d="M167.377-72.067a142.445,142.445,0,0,1,34.468,31.325c2.423,2.963,4.593,6.085,6.762,9.154,1.058,1.587,2.042,3.175,3.048,4.72s1.9,3.175,2.847,4.783a148.936,148.936,0,0,1,9.408,19.441,153.261,153.261,0,0,0-15.874-29.78,149.756,149.756,0,0,1,11.969,20.912c.783,1.788,1.693,3.524,2.4,5.365l2.233,5.514L226.662,5.1c.677,1.947,1.217,3.969,1.852,6.011-.413-1.217-.91-2.794-1.46-4.519s-1.281-3.524-1.9-5.291-1.365-3.418-1.968-4.794-1.058-2.466-1.4-3.058a154.912,154.912,0,0,0-35.548-50.237,149.006,149.006,0,0,0-24.743-18.943A146.406,146.406,0,0,0,133.29-89a66.3,66.3,0,0,1,19.494,7.683c1.312.773,2.625,1.471,3.842,2.275l3.619,2.339,1.8,1.143,1.746,1.2C164.964-73.613,166.15-72.829,167.377-72.067Z" transform="translate(61.808 101.004)"/>
    <path id="Path_15589" data-name="Path 15589" class="cls-1" d="M229.07,48.412l-.053-6.085a23.224,23.224,0,0,0-.127-2.974l-.19-2.963c.064,1.058.138,2.117.2,3.175l.106,1.535v1.524Z" transform="translate(67.369 108.312)"/>
    <path id="Path_15590" data-name="Path 15590" class="cls-1" d="M-38.247,15.37l-.72,3.4c-.243,1.143-.487,2.265-.646,3.418-.349,2.275-.8,4.519-1.058,6.752.2-2.254.646-4.508,1.005-6.784.159-1.143.423-2.265.677-3.4Z" transform="translate(51.669 107.087)"/>
    <path id="Path_15591" data-name="Path 15591" class="cls-1" d="M119.989-88.475c-2.466-.37-4.963-.519-7.482-.783A147.631,147.631,0,0,0,55-85.692,156.33,156.33,0,0,1,87.352-91.1a119.946,119.946,0,0,1,32.637,2.625Z" transform="translate(57.245 100.871)"/>
    <path id="Path_15592" data-name="Path 15592" class="cls-1" d="M134.79-82.47A131.363,131.363,0,0,1,160.961-70.7a137.31,137.31,0,0,1,22.446,16.488A139.693,139.693,0,0,0,134.79-82.47Z" transform="translate(61.895 101.385)"/>
    <path id="Path_15593" data-name="Path 15593" class="cls-1" d="M-1.45,135.832c0-.127.328.063.73.392a11.645,11.645,0,0,0,1.058.963,140.1,140.1,0,0,0,15.874,15.1c-1.45-1.058-2.879-2.021-4.328-3.175-1.545-1.323-2.677-2.487-3.725-3.482s-1.9-1.873-2.783-2.826-1.789-1.884-2.9-2.974S.169,137.409-1.45,135.832Z" transform="translate(53.955 114.106)"/>
    <path id="Path_15594" data-name="Path 15594" class="cls-1" d="M-37.16,10.947V10.46c.4-1.545.773-3.08,1.27-4.561l.222-.519C-36.2,7.2-36.663,9.073-37.16,10.947Z" transform="translate(51.873 106.505)"/>
    <path id="Path_15595" data-name="Path 15595" class="cls-1" d="M-7.094,129.148a1.376,1.376,0,0,0-.116-1.058c1.185,1.693,2.529,3.238,3.81,4.847s2.656,3.175,4.021,4.678c-.37-.339-.72-.656-1.005-.9-.5-.476-1.058-1.058-1.609-1.64s-1.122-1.323-1.7-2C-4.871,131.635-6.088,130.291-7.094,129.148Z" transform="translate(53.619 113.657)"/>
    <path id="Path_15596" data-name="Path 15596" class="cls-1" d="M-33.069,49.184a48.108,48.108,0,0,0-.381-6.106A163.788,163.788,0,0,1-29.5,22.219c.18-1.2.773-3.693,1.154-6.1.624-1.323,1.259-2.762,1.884-4.233a132.656,132.656,0,0,0-6.064,52.417c-.243-2.434-.349-4.921-.519-7.408S-33.133,51.777-33.069,49.184Z" transform="translate(52.09 106.884)"/>
    <path id="Path_15597" data-name="Path 15597" class="cls-1" d="M244.265,60.022a137.643,137.643,0,0,1-1.672,19.049c-.571,3.175-1.058,6.456-1.9,9.652s-1.662,6.35-2.561,9.525a144.9,144.9,0,0,1-16.086,34.7,133.692,133.692,0,0,0,10.689-19.726,152.388,152.388,0,0,0,7.3-20.965,168.564,168.564,0,0,0,4.413-26.277c.138-1.058,0,.857-.254,4.625-.19,1.884-.529,4.233-.857,6.9-.169,1.344-.476,2.741-.73,4.233s-.487,3.037-.878,4.614a152.238,152.238,0,0,1-5.831,20.033,157.533,157.533,0,0,1-7.99,17.705l2.709-5.186-2.011,3.863-.952,1.863-.984,1.757c.773-1.238,1.6-2.847,2.487-4.572s1.863-3.556,2.656-5.387,1.672-3.535,2.265-5.037l1.418-3.471c-.635,1.63-1.206,3.27-1.873,4.879a145.05,145.05,0,0,0,8.741-27.579,164.827,164.827,0,0,0,3.228-28.806,150.816,150.816,0,0,1-12.456,57.761,149.8,149.8,0,0,1-16.149,28.193,152.087,152.087,0,0,1-22.933,24.8,148.363,148.363,0,0,1-28.754,19.3,144.711,144.711,0,0,1-32.881,11.99A143.049,143.049,0,0,1,97.7,202.191a143.7,143.7,0,0,1-34-4.434,151.144,151.144,0,0,1-34.786-13.334c-1.344-.741-2.709-1.439-4.043-2.191l-3.905-2.349-1.958-1.175-1.894-1.259-3.789-2.508a160.857,160.857,0,0,1-26.849-23.631,162.854,162.854,0,0,1-11-13.758,153.218,153.218,0,0,1-16.954-30.108l-1.333-3.524-.762-2.117c-.265-.741-.487-1.524-.741-2.328l-1.556-5.186-1.4-5.746A154.011,154.011,0,0,1-50.626,64.35a165.778,165.778,0,0,1,1.841-39.421l.921-4.879c.159-.8.3-1.63.476-2.434l.624-2.381,1.164-4.826,1.376-4.773.635-2.392L-42.795.9l1.6-4.72,1.841-4.635.9-2.318.995-2.286a146.244,146.244,0,0,1,54.724-63.5,151.97,151.97,0,0,1,83.689-23.769,79.374,79.374,0,0,1,9.091.794A30.394,30.394,0,0,1,115.959-98c.921.455.54.8-1.884.91-1.217.063-2.942,0-5.291,0H104.8c-1.482,0-3.175-.063-4.963,0A164.363,164.363,0,0,0,63.859-91.8,159.558,159.558,0,0,0,29.888-78.306,17.7,17.7,0,0,1,32.82-80.3q1.058-.6,2.254-1.27l2.582-1.249c1.8-.836,3.64-1.778,5.408-2.5s3.344-1.482,4.561-2.117A131.165,131.165,0,0,0,24.343-76.846,135.9,135.9,0,0,0,3.569-62.284,151.515,151.515,0,0,1,33.2-82.074,149.112,149.112,0,0,0-32.741-16.037c-2.6,5.291-5.471,10.043-7.948,15.7-.614,1.408-1.27,2.857-1.852,4.381S-43.6,7.224-44.149,8.864A49.452,49.452,0,0,0-45.5,14.156a55.884,55.884,0,0,0-1.058,5.916A152.086,152.086,0,0,1-35.842-9.677,154.837,154.837,0,0,1,29.867-78.3a1.27,1.27,0,0,0-.169.159,139.027,139.027,0,0,1,25.589-10.9,149.007,149.007,0,0,1,26.7-5.651c-1.429.212-2.868.37-4.233.624l-4.233.794c-2.794.466-5.45,1.143-7.948,1.609l4.963-.974c1.661-.275,3.334-.5,4.985-.751,3.312-.561,6.667-.762,9.99-1.122a158.8,158.8,0,0,1,19.938-.243,149.587,149.587,0,0,1,19.674,2.18c3.175.7,6.477,1.259,9.652,2.117,1.587.423,3.175.815,4.762,1.28l4.709,1.492a149.443,149.443,0,0,0-27.6-5.291,154.117,154.117,0,0,0-28.637.063A149.726,149.726,0,0,0,32.386-76.317,146.837,146.837,0,0,0-12.655-39.658a144.36,144.36,0,0,0-26.7,49.834A205.456,205.456,0,0,1-24.963-20.916C-19.026-31.075-11.84-40.2-5.014-46.177A152.307,152.307,0,0,0-20.888-26.355,151.336,151.336,0,0,0-33.143-4.026,147.841,147.841,0,0,0-45.6,45.714l.138-3.831c0-1.259.18-2.519.254-3.778a128.222,128.222,0,0,0-.571,33,154.507,154.507,0,0,0,7.207,32.182c.624,1.82,1.164,3.651,1.9,5.45-.73-1.767-1.27-3.63-1.9-5.45A148.762,148.762,0,0,1-45.6,45.714a188.754,188.754,0,0,0,1.058,29.177c-.254-3.006-.339-6.678-.54-10.668,0-4-.1-8.318.169-12.7A143.335,143.335,0,0,1-40,18.008,136.518,136.518,0,0,0-43.44,67.747,151.505,151.505,0,0,1-41.6,32.517,142.413,142.413,0,0,1-31.407-1.348a141.475,141.475,0,0,0-6.286,18.224c-.91,3.09-1.545,6.244-2.244,9.376-.36,1.556-.561,3.175-.847,4.731s-.582,3.175-.73,4.752a144.582,144.582,0,0,0,4.889,64.555c-.307-.783-.519-1.6-.773-2.392.434,1.609,1.058,3.175,1.566,4.762a141.12,141.12,0,0,0,10.382,23.727,118.029,118.029,0,0,0,13.2,18.806l2.392,3.005c-1.619-1.8-2.55-2.572.36,1.058A128.054,128.054,0,0,0,13,170.877c2.117,1.7,4.4,3.175,6.635,4.783s4.635,2.984,6.974,4.5c4.815,2.826,9.747,5.63,14.954,8.075a112.048,112.048,0,0,0,21.589,7.673,20.614,20.614,0,0,0,4.635,1.058c1.852.37,3.7.836,5.6,1.143,2.3.37,4.582.825,6.889,1.132s4.6.54,6.879.73L80.3,199.2c-2.307-.307-4.614-.741-6.921-1.058-1.736-.286-3.418-.73-5.112-1.058,1.2.127,2.434.317,4.963.8a143.927,143.927,0,0,1-45.369-17.472A149.017,149.017,0,0,1-9.861,148.155l4.233,4.233L-9,148.812c-1.143-1.185-2.117-2.476-3.249-3.715a146.591,146.591,0,0,1-17.2-27.42c.688,1.46,1.5,2.794,2.244,4.074s1.46,2.487,2.191,3.588a146.042,146.042,0,0,1-15.345-43.39A138.994,138.994,0,0,1-42.752,58.9c0-.963-.085-1.937-.074-2.9V53.09c.064-1.937,0-3.873.191-5.81l.392-5.8.688-5.789A143.492,143.492,0,0,1-4.337-40.886,129.967,129.967,0,0,0-31.407-1.348,146.222,146.222,0,0,1-15.195-30.059a143.662,143.662,0,0,1,22.4-24.256c2.042-1.863,4.233-3.482,6.424-5.217s4.477-3.175,6.731-4.826a143.633,143.633,0,0,1,14.276-8.35,138.309,138.309,0,0,1,30.923-11.4l-5.926,2.381c-2.053.815-4.085,1.81-6.043,2.7l-1.45.667-1.365.73-2.55,1.408c-.794.455-1.535.889-2.191,1.312a18.076,18.076,0,0,0-1.714,1.27,6.435,6.435,0,0,0,2.117-.54c1.175-.349,2.614-.8,3.8-1.175,2.371-.751,3.757-1.143.106.5C47-73.385,43.9-71.682,40.884-70.232L36.545-67.84c-.709.4-1.418.762-2.117,1.175l-2.011,1.217a145.1,145.1,0,0,0-14.1,9.525C10.247-49.616,4.691-43.542,1.854-38.24c-.222.55,1.154-.339,3.175-1.82l3.662-2.423,1.99-1.344L12.8-45.1c1.376-.815,2.667-1.619,3.831-2.233s2.18-1.058,2.889-1.365c1.418-.561,1.662-.328-.212,1.312a146.816,146.816,0,0,0-26.722,28.5c-.73.9-1.4,1.852-2.064,2.826l-2.032,2.942c-1.333,2.032-2.561,4.148-3.873,6.265a15.875,15.875,0,0,0-1.143,2.762,137.079,137.079,0,0,0-9.588,22.637c-.54,1.8-1.122,3.514-1.566,5.186l-1.238,4.794c-.413,1.513-.635,2.974-.942,4.307s-.571,2.646-.762,3.7l-.825,5.069c-.3,1.683-.392,3.376-.6,5.069-.159.889-.317,1.7-.487,2.445s-.265,1.429-.423,2.021c.053,1.058.1,2.117.116,3.238s0,2.117.116,3.228A131.227,131.227,0,0,0-30.423,84.69a122.284,122.284,0,0,0,3.175,14.678c.116-.148.074-.974.508-.116a138.8,138.8,0,0,0,6.032,15.8,138.465,138.465,0,0,0,8.032,14.816c.571.984,1.058,1.99,1.651,2.931l1.672,2.752,1.566,2.656,1.556,2.455a250.162,250.162,0,0,0,19.187,19.589A131.386,131.386,0,0,0,40.08,178.941v-.053a135.051,135.051,0,0,0,28.034,10.985c1.609.5,3.175.995,4.572,1.492,2.487.413,5.112.836,6.35,1.058a156.785,156.785,0,0,0,21.79,2.709c1.259,0,3.63-.392,6.35-.413,1.344,0,2.677-.063,3.99-.138l3.926-.222c2.593-.222,5.143-.54,7.673-.8l4.424-.677,2.222-.339,2.212-.434,4.455-.889c1.471-.349,2.942-.741,4.434-1.111a139.469,139.469,0,0,0,28.616-10.847,141,141,0,0,0,25.547-16.784,2.857,2.857,0,0,1,.878-.476c1.217-1.058,2.572-2.339,3.958-3.577l2.011-1.831c.624-.6,1.175-1.185,1.672-1.693-.37.392-.593.656-.508.614l4.053-4.159,2.889-3.175,1.355-1.471,1.365-1.619c.942-1.154,2.042-2.434,3.344-4.085l3.228-4.508c.561-.72,1.058-1.513,1.577-2.286a126.239,126.239,0,0,0,13.916-26.129,135.31,135.31,0,0,0,8.308-30.69c.265-2.117.5-3.852.7-5.418s.275-2.942.4-4.233.212-2.5.317-3.746S244.265,61.471,244.265,60.022Z" transform="translate(97.393 248.537) rotate(-90)"/>
    <path id="Path_15598" data-name="Path 15598" class="cls-1" d="M17.25,152.92A137.42,137.42,0,0,0,41.591,168C32.288,163.672,24.171,159.09,17.25,152.92Z" transform="translate(55.045 115.104)"/>
    <path id="Path_15599" data-name="Path 15599" class="cls-1" d="M23.214-53.146c1.651-.794,3.344-1.7,5.186-2.55s3.672-1.894,5.672-2.794A134.635,134.635,0,0,0-15.477-10.349h-.063A125.523,125.523,0,0,1,3.837-35.388C11.3-42.976,18.9-49.04,23.214-53.146Z" transform="translate(53.133 102.783)"/>
    <path id="Path_15600" data-name="Path 15600" class="cls-1" d="M-.76,136.2c.286.243.635.561,1.058.9l.063.064A11.643,11.643,0,0,1-.76,136.2Z" transform="translate(53.995 114.129)"/>
    <path id="Path_15601" data-name="Path 15601" class="cls-1" d="M56.666-82.312,59.026-83l-4.455,1.376c-1.492.434-2.942,1.058-4.413,1.534-2.942.995-5.8,2.233-8.678,3.418a105.548,105.548,0,0,1,15.186-5.641Z" transform="translate(56.457 101.354)"/>
    <path id="Path_15602" data-name="Path 15602" class="cls-1" d="M118.37-84.56c.783.138,1.566.254,2.339.413l2.318.508c1.545.349,3.1.667,4.635,1.058,3.048.868,6.138,1.577,9.133,2.646a137.757,137.757,0,0,1,17.652,7.027,140.836,140.836,0,0,1,38.1,28.076A145.885,145.885,0,0,0,118.37-84.56Z" transform="translate(60.938 101.263)"/>
    <path id="Path_15603" data-name="Path 15603" class="cls-1" d="M59.39-70.734c1.164-.254,2.318-.561,3.5-.783l3.556-.624c2.36-.466,4.773-.7,7.165-1.058-2.381.434-4.762.794-7.09,1.386l-3.514.8c-1.164.286-2.307.646-3.461.952C60.353-70.47,59.538-70.544,59.39-70.734Z" transform="translate(57.501 101.925)"/>
    <path id="Path_15604" data-name="Path 15604" class="cls-1" d="M12.518-59.878c1.058-.762,2.117-1.482,3.08-2.222-2.582,1.979-4.963,4.233-7.408,6.35Z" transform="translate(54.517 102.572)"/>
    <path id="Path_15605" data-name="Path 15605" class="cls-1" d="M108.113-74.165c-1.767-.233-3.535-.317-5.291-.423s-3.524-.254-5.291-.243c2.117-.169,4.233-.169,6.35-.328C104.949-74.811,106.42-74.525,108.113-74.165Z" transform="translate(59.724 101.811)"/>
    <path id="Path_15606" data-name="Path 15606" class="cls-1" d="M158.156-60.131q3.323,1.725,6.5,3.524c2.053,1.291,4.159,2.445,6.1,3.767a138.342,138.342,0,0,0-15.43-8.371,19.218,19.218,0,0,1,2.836,1.079Z" transform="translate(63.092 102.624)"/>
  </g>
</svg>
